<svg width="24" height="17" viewBox="0 0 24 17" fill="none" xmlns="http://www.w3.org/2000/svg">
<path d="M23.7919 8.16479L16.3614 0.894202C16.2183 0.785136 16.0394 0.731064 15.8584 0.742142C15.6774 0.75322 15.5067 0.828685 15.3785 0.954363C15.2502 1.08004 15.1732 1.24728 15.1619 1.42467C15.1506 1.60206 15.2058 1.77739 15.3171 1.91773L21.4751 7.95303H0.744247C0.546861 7.95303 0.357559 8.02987 0.217985 8.16667C0.0784117 8.30346 0 8.48899 0 8.68244C0 8.87589 0.0784117 9.06142 0.217985 9.19821C0.357559 9.335 0.546861 9.41185 0.744247 9.41185H21.4631L15.3171 15.4354C15.2338 15.4989 15.1651 15.579 15.1158 15.6704C15.0665 15.7619 15.0376 15.8626 15.031 15.9658C15.0244 16.0691 15.0403 16.1725 15.0777 16.2693C15.115 16.3661 15.1729 16.4539 15.2475 16.5271C15.3222 16.6002 15.4118 16.657 15.5106 16.6936C15.6093 16.7302 15.7148 16.7458 15.8202 16.7393C15.9255 16.7329 16.0283 16.7045 16.1216 16.6562C16.2149 16.6078 16.2967 16.5406 16.3614 16.4589L23.7919 9.17656C23.9254 9.04065 24 8.85933 24 8.67067C24 8.48202 23.9254 8.3007 23.7919 8.16479Z" fill="#FEFEFE"/>
</svg>
